HIERARCHY
ROOT Hips
{
  OFFSET 224.18 90.4135 962.297
  CHANNELS 6 Xposition Yposition Zposition Zrotation Xrotation Yrotation
  JOINT Spine
  {
    OFFSET 0 8 0
    CHANNELS 6 Xposition Yposition Zposition Zrotation Xrotation Yrotation
    JOINT Spine1
    {
      OFFSET 2.62631e-05 8 -2.76502e-05
      CHANNELS 6 Xposition Yposition Zposition Zrotation Xrotation Yrotation
      JOINT Spine2
      {
        OFFSET 0 8 0
        CHANNELS 6 Xposition Yposition Zposition Zrotation Xrotation Yrotation
        JOINT Spine3
        {
          OFFSET 0 8 0
          CHANNELS 6 Xposition Yposition Zposition Zrotation Xrotation Yrotation
          JOINT Neck
          {
            OFFSET 0.000165141 17.0002 -0.0004266
            CHANNELS 6 Xposition Yposition Zposition Zrotation Xrotation Yrotation
            JOINT Head
            {
              OFFSET 1.56277e-05 10.8 0
              CHANNELS 6 Xposition Yposition Zposition Zrotation Xrotation Yrotation
              End Site
              {
                OFFSET 0 20.25 0
              }
            }
          }
          JOINT LeftShoulder
          {
            OFFSET 5.0002 16.9999 -0.000270742
            CHANNELS 6 Xposition Yposition Zposition Zrotation Xrotation Yrotation
            JOINT LeftShoulder2
            {
              OFFSET 6.45 0 0
              CHANNELS 6 Xposition Yposition Zposition Zrotation Xrotation Yrotation
              JOINT LeftArm
              {
                OFFSET 6.4499 0.00015947 0.000363818
                CHANNELS 6 Xposition Yposition Zposition Zrotation Xrotation Yrotation
                JOINT LeftForeArm
                {
                  OFFSET 0 -32.4 -2
                  CHANNELS 6 Xposition Yposition Zposition Zrotation Xrotation Yrotation
                  JOINT LeftHand
                  {
                    OFFSET 1.23613e-05 -25.65 2.00001
                    CHANNELS 6 Xposition Yposition Zposition Zrotation Xrotation Yrotation
                    JOINT LeftHandThumb1
                    {
                      OFFSET -0.49997 -1.49999 2.65002
                      CHANNELS 6 Xposition Yposition Zposition Zrotation Xrotation Yrotation
                      JOINT LeftHandThumb2
                      {
                        OFFSET -5.30691e-05 -3.80001 3.69997
                        CHANNELS 6 Xposition Yposition Zposition Zrotation Xrotation Yrotation
                        JOINT LeftHandThumb3
                        {
                          OFFSET 3.72284e-05 -2.99998 2.70001
                          CHANNELS 6 Xposition Yposition Zposition Zrotation Xrotation Yrotation
                          End Site
                          {
                            OFFSET -3.07564e-05 -2.30001 1.79999
                          }
                        }
                      }
                    }
                    JOINT LeftHandIndex
                    {
                      OFFSET 0 -1.89998 1.59999
                      CHANNELS 6 Xposition Yposition Zposition Zrotation Xrotation Yrotation
                      JOINT LeftHandIndex1
                      {
                        OFFSET -1.6085e-05 -8.30001 1.9
                        CHANNELS 6 Xposition Yposition Zposition Zrotation Xrotation Yrotation
                        JOINT LeftHandIndex2
                        {
                          OFFSET 6.34438e-05 -4.5 1.88644e-05
                          CHANNELS 6 Xposition Yposition Zposition Zrotation Xrotation Yrotation
                          JOINT LeftHandIndex3
                          {
                            OFFSET -1.92838e-05 -3.40002 -2.67889e-05
                            CHANNELS 6 Xposition Yposition Zposition Zrotation Xrotation Yrotation
                            End Site
                            {
                              OFFSET 1.25883e-05 -2.6 0
                            }
                          }
                        }
                      }
                    }
                    JOINT LeftHandMiddle
                    {
                      OFFSET -0.249996 -2.2 0.400004
                      CHANNELS 6 Xposition Yposition Zposition Zrotation Xrotation Yrotation
                      JOINT LeftHandMiddle1
                      {
                        OFFSET 0 -8.29999 0.999984
                        CHANNELS 6 Xposition Yposition Zposition Zrotation Xrotation Yrotation
                        JOINT LeftHandMiddle2
                        {
                          OFFSET 1.60589e-05 -4.65 2.56092e-05
                          CHANNELS 6 Xposition Yposition Zposition Zrotation Xrotation Yrotation
                          JOINT LeftHandMiddle3
                          {
                            OFFSET -1.40931e-05 -3.30002 -2.9216e-05
                            CHANNELS 6 Xposition Yposition Zposition Zrotation Xrotation Yrotation
                            End Site
                            {
                              OFFSET -6.36158e-05 -2.69999 1.23334e-05
                            }
                          }
                        }
                      }
                    }
                    JOINT LeftHandRing
                    {
                      OFFSET -0.499994 -2.14999 -0.800006
                      CHANNELS 6 Xposition Yposition Zposition Zrotation Xrotation Yrotation
                      JOINT LeftHandRing1
                      {
                        OFFSET -2.07263e-05 -7.75001 -0.200006
                        CHANNELS 6 Xposition Yposition Zposition Zrotation Xrotation Yrotation
                        JOINT LeftHandRing2
                        {
                          OFFSET 0 -3.79999 0
                          CHANNELS 6 Xposition Yposition Zposition Zrotation Xrotation Yrotation
                          JOINT LeftHandRing3
                          {
                            OFFSET 0 -3.39999 2.21033e-05
                            CHANNELS 6 Xposition Yposition Zposition Zrotation Xrotation Yrotation
                            End Site
                            {
                              OFFSET 0 -2.60001 0
                            }
                          }
                        }
                      }
                    }
                    JOINT LeftHandPinky
                    {
                      OFFSET -0.749992 -1.75001 -1.85
                      CHANNELS 6 Xposition Yposition Zposition Zrotation Xrotation Yrotation
                      JOINT LeftHandPinky1
                      {
                        OFFSET -1.74078e-05 -7.14998 -1.00002
                        CHANNELS 6 Xposition Yposition Zposition Zrotation Xrotation Yrotation
                        JOINT LeftHandPinky2
                        {
                          OFFSET 0 -2.99999 0
                          CHANNELS 6 Xposition Yposition Zposition Zrotation Xrotation Yrotation
                          JOINT LeftHandPinky3
                          {
                            OFFSET 2.55531e-05 -2.34999 2.66659e-05
                            CHANNELS 6 Xposition Yposition Zposition Zrotation Xrotation Yrotation
                            End Site
                            {
                              OFFSET 0 -2.1 0
                            }
                          }
                        }
                      }
                    }
                  }
                }
              }
            }
          }
          JOINT RightShoulder
          {
            OFFSET -4.9998 17.0001 -0.000476349
            CHANNELS 6 Xposition Yposition Zposition Zrotation Xrotation Yrotation
            JOINT RightShoulder2
            {
              OFFSET -6.45 0 0
              CHANNELS 6 Xposition Yposition Zposition Zrotation Xrotation Yrotation
              JOINT RightArm
              {
                OFFSET -6.45003 0.00023737 -0.000308998
                CHANNELS 6 Xposition Yposition Zposition Zrotation Xrotation Yrotation
                JOINT RightForeArm
                {
                  OFFSET 2.41925e-05 -32.4 -2.00002
                  CHANNELS 6 Xposition Yposition Zposition Zrotation Xrotation Yrotation
                  JOINT RightHand
                  {
                    OFFSET 0 -25.65 1.99999
                    CHANNELS 6 Xposition Yposition Zposition Zrotation Xrotation Yrotation
                    JOINT RightHandThumb1
                    {
                      OFFSET 0.500001 -1.5 2.65004
                      CHANNELS 6 Xposition Yposition Zposition Zrotation Xrotation Yrotation
                      JOINT RightHandThumb2
                      {
                        OFFSET 0 -3.79997 3.69996
                        CHANNELS 6 Xposition Yposition Zposition Zrotation Xrotation Yrotation
                        JOINT RightHandThumb3
                        {
                          OFFSET 0 -3.00001 2.70003
                          CHANNELS 6 Xposition Yposition Zposition Zrotation Xrotation Yrotation
                          End Site
                          {
                            OFFSET -1.18282e-05 -2.3 1.79998
                          }
                        }
                      }
                    }
                    JOINT RightHandIndex
                    {
                      OFFSET 0 -1.9 1.60002
                      CHANNELS 6 Xposition Yposition Zposition Zrotation Xrotation Yrotation
                      JOINT RightHandIndex1
                      {
                        OFFSET 0 -8.30001 1.89992
                        CHANNELS 6 Xposition Yposition Zposition Zrotation Xrotation Yrotation
                        JOINT RightHandIndex2
                        {
                          OFFSET -1.20277e-05 -4.5 1.67209e-05
                          CHANNELS 6 Xposition Yposition Zposition Zrotation Xrotation Yrotation
                          JOINT RightHandIndex3
                          {
                            OFFSET 0 -3.4 -1.38463e-05
                            CHANNELS 6 Xposition Yposition Zposition Zrotation Xrotation Yrotation
                            End Site
                            {
                              OFFSET 1.14996e-05 -2.6 0
                            }
                          }
                        }
                      }
                    }
                    JOINT RightHandMiddle
                    {
                      OFFSET 0.249998 -2.20001 0.400015
                      CHANNELS 6 Xposition Yposition Zposition Zrotation Xrotation Yrotation
                      JOINT RightHandMiddle1
                      {
                        OFFSET 0 -8.29999 0.99999
                        CHANNELS 6 Xposition Yposition Zposition Zrotation Xrotation Yrotation
                        JOINT RightHandMiddle2
                        {
                          OFFSET 0 -4.64999 0
                          CHANNELS 6 Xposition Yposition Zposition Zrotation Xrotation Yrotation
                          JOINT RightHandMiddle3
                          {
                            OFFSET -2.517e-05 -3.30001 1.84719e-05
                            CHANNELS 6 Xposition Yposition Zposition Zrotation Xrotation Yrotation
                            End Site
                            {
                              OFFSET 0 -2.7 0
                            }
                          }
                        }
                      }
                    }
                    JOINT RightHandRing
                    {
                      OFFSET 0.5 -2.15 -0.799993
                      CHANNELS 6 Xposition Yposition Zposition Zrotation Xrotation Yrotation
                      JOINT RightHandRing1
                      {
                        OFFSET 0 -7.75001 -0.200026
                        CHANNELS 6 Xposition Yposition Zposition Zrotation Xrotation Yrotation
                        JOINT RightHandRing2
                        {
                          OFFSET 1.02929e-05 -3.8 4.41051e-05
                          CHANNELS 6 Xposition Yposition Zposition Zrotation Xrotation Yrotation
                          JOINT RightHandRing3
                          {
                            OFFSET 1.03282e-05 -3.40001 0
                            CHANNELS 6 Xposition Yposition Zposition Zrotation Xrotation Yrotation
                            End Site
                            {
                              OFFSET 0 -2.59997 -1.58185e-05
                            }
                          }
                        }
                      }
                    }
                    JOINT RightHandPinky
                    {
                      OFFSET 0.750002 -1.75 -1.84997
                      CHANNELS 6 Xposition Yposition Zposition Zrotation Xrotation Yrotation
                      JOINT RightHandPinky1
                      {
                        OFFSET 0 -7.15 -1
                        CHANNELS 6 Xposition Yposition Zposition Zrotation Xrotation Yrotation
                        JOINT RightHandPinky2
                        {
                          OFFSET -1.51964e-05 -3 -4.41868e-05
                          CHANNELS 6 Xposition Yposition Zposition Zrotation Xrotation Yrotation
                          JOINT RightHandPinky3
                          {
                            OFFSET 0 -2.35 4.50619e-05
                            CHANNELS 6 Xposition Yposition Zposition Zrotation Xrotation Yrotation
                            End Site
                            {
                              OFFSET 0 -2.09997 -2.98822e-05
                            }
                          }
                        }
                      }
                    }
                  }
                }
              }
            }
          }
        }
      }
    }
  }
  JOINT LeftUpLeg
  {
    OFFSET 7.99999 0 0
    CHANNELS 6 Xposition Yposition Zposition Zrotation Xrotation Yrotation
    JOINT LeftLeg
    {
      OFFSET -2.90351e-05 -45 -1.00001
      CHANNELS 6 Xposition Yposition Zposition Zrotation Xrotation Yrotation
      JOINT LeftFoot
      {
        OFFSET -1.91966e-05 -41 -2
        CHANNELS 6 Xposition Yposition Zposition Zrotation Xrotation Yrotation
        JOINT LeftToeBase
        {
          OFFSET 0 -7.5 12.5
          CHANNELS 6 Xposition Yposition Zposition Zrotation Xrotation Yrotation
          JOINT LeftFootToe
          {
            OFFSET 0 0 4
            CHANNELS 6 Xposition Yposition Zposition Zrotation Xrotation Yrotation
            End Site
            {
              OFFSET 0 0 0
            }
          }
        }
      }
    }
  }
  JOINT RightUpLeg
  {
    OFFSET -7.99999 0 0
    CHANNELS 6 Xposition Yposition Zposition Zrotation Xrotation Yrotation
    JOINT RightLeg
    {
      OFFSET -2.46352e-05 -45 -0.999992
      CHANNELS 6 Xposition Yposition Zposition Zrotation Xrotation Yrotation
      JOINT RightFoot
      {
        OFFSET 0 -41 -2
        CHANNELS 6 Xposition Yposition Zposition Zrotation Xrotation Yrotation
        JOINT RightToeBase
        {
          OFFSET 1.30305e-05 -7.5 12.5
          CHANNELS 6 Xposition Yposition Zposition Zrotation Xrotation Yrotation
          JOINT RightFootToe
          {
            OFFSET 0 0 4
            CHANNELS 6 Xposition Yposition Zposition Zrotation Xrotation Yrotation
            End Site
            {
              OFFSET 0 0 0
            }
          }
        }
      }
    }
  }
}
MOTION
Frames:	3
Frame Time:	0.0111111
238.881 92.0875 937.89 1.76828 5.13002 66.5536 0 8 0 -8.63206 1.77666 -4.56763 1.13687e-13 8 0 1.46341 -0.774193 -0.713248 0 8 0 0.730011 -0.381049 -0.351172 0 8 0 0.732834 -0.386134 -0.354327 0 17 0 -6.20258 4.4928 9.60944 0 10.8 0 -5.34441 3.20942 22.1499 5 17 0 -10.3714 -7.38552 -2.79055 6.45 2.84217e-14 -1.13687e-13 -1.42271 -1.17686 0.264372 6.45 0 -1.13687e-13 36.0942 -32.4936 13.6587 0 -32.4 -2 -10.9399 -48.7401 40.1148 1.13687e-13 -25.65 2 9.33375 -10.1205 18.3219 -0.5 -1.5 2.65 -21.2073 2.64533 -7.08936 0 -3.8 3.7 -0.802007 18.4597 -0.0322508 0 -3 2.7 -0.0807234 12.0508 0.00822112 0 -1.9 1.6 0 6.36111e-15 -0 -1.13687e-13 -8.3 1.9 -4.36544 -16.8064 -0.48306 1.13687e-13 -4.5 0 -29.5459 0.00266721 -0.0124256 -5.68434e-14 -3.4 -1.13687e-13 -21.8212 0.00974424 -0.00382747 -0.25 -2.2 0.4 0 6.36111e-15 -0 0 -8.3 1 -15.0426 -2.89062 -0.190981 0 -4.65 -1.13687e-13 -20.5882 -0.00775131 -0.000108199 -2.84217e-14 -3.3 -1.13687e-13 -16.2678 -0.00805405 -0.0124757 -0.5 -2.15 -0.8 0 6.36111e-15 -0 -1.13687e-13 -7.75 -0.2 -71.5432 9.60001 12.2248 5.68434e-14 -3.8 -1.13687e-13 -0.000169892 0.103652 -0.019219 0 -3.4 5.68434e-14 -9.27137e-06 0.0927058 0.00951811 -0.75 -1.75 -1.85 0 6.36111e-15 -0 -1.13687e-13 -7.15 -1 -75.8771 6.59183 13.1225 0 -3 5.68434e-14 -0.0297555 0.0250115 -0.0891352 0 -2.35 -5.68434e-14 4.15279e-05 0.0269942 -0.0884361 -5 17 0 -6.62639 -0.793545 -4.95012 -6.45 0 0 -1.97522 0.725498 -0.538376 -6.45 2.84217e-14 1.13687e-13 -124.551 -71.9099 -41.3528 2.84217e-14 -32.4 -2 141.118 -69.288 152.401 0 -25.65 2 -41.5482 -1.41012 48.5651 0.5 -1.5 2.65 12.3656 -19.1011 3.42271 0 -3.8 3.7 0.406291 33.5599 -0.237962 0 -3 2.7 0.00462872 3.7918 -0.0100362 0 -1.9 1.6 3.18055e-15 3.18055e-15 -2.38542e-15 0 -8.3 1.9 15.8938 -17.1028 2.19401 0 -4.5 5.68434e-14 3.20164 0.0381038 0.0117822 0 -3.4 0 3.02042 0.0356228 0.0113271 0.25 -2.2 0.4 3.18055e-15 3.18055e-15 -2.38542e-15 0 -8.3 1 11.069 -19.1456 1.36872 -1.13687e-13 -4.65 0 38.0443 0.120206 -0.0307872 0 -3.3 0 26.928 0.057314 -0.0482573 0.5 -2.15 -0.8 3.18055e-15 3.18055e-15 -2.38542e-15 0 -7.75 -0.2 23.2839 -18.318 2.72441 -1.13687e-13 -3.8 0 56.1727 -0.0146482 0.0117483 -1.13687e-13 -3.4 0 38.9863 -0.00918334 0.014499 0.75 -1.75 -1.85 3.18055e-15 3.18055e-15 -2.38542e-15 -1.13687e-13 -7.15 -1 39.2447 -15.8488 3.18553 -1.13687e-13 -3 0 49.4756 0.0795313 -0.105565 1.13687e-13 -2.35 -5.68434e-14 34.2639 0.00631123 -0.0880458 8 0 0 -1.54518 -7.50268 37.0911 0 -45 -1 -0.376333 13.1231 -6.09304 -1.13687e-13 -41 -2 2.08421 -4.94347 -9.40549 0 -7.5 12.5 -4.4492e-10 -6.30329e-05 -2.79024e-09 0 0 4 -3.52099 0.333218 1.71867 -8 0 0 -22.5589 3.6221 -14.5312 0 -45 -1 0.0253519 14.4265 -0.460555 0 -41 -2 11.7677 -0.263822 -4.62892 5.68434e-14 -7.5 12.5 -1.15504e-07 1.55945e-07 -2.54647e-06 5.68434e-14 0 4 -10.5619 0.525815 17.4266 
238.893 92.0848 937.814 1.75695 5.11547 66.5502 0 8 0 -8.64771 1.77587 -4.56886 1.13687e-13 8 -1.13687e-13 1.46876 -0.772912 -0.711526 -1.13687e-13 8 0 0.730011 -0.380988 -0.351172 1.13687e-13 8 0 0.736605 -0.386196 -0.353366 0 17 0 -6.25569 4.50723 9.58561 1.13687e-13 10.8 1.13687e-13 -5.32397 3.28423 22.0958 5 17 1.13687e-13 -10.423 -7.37843 -2.80412 6.45 2.84217e-14 0 -1.42456 -1.17966 0.24952 6.45 -2.84217e-14 -1.13687e-13 35.9375 -32.5279 13.6369 -1.13687e-13 -32.4 -2 -10.6005 -49.0147 40.0854 -1.13687e-13 -25.65 2 9.90987 -10.2168 18.0806 -0.5 -1.5 2.65 -20.6844 1.63598 -7.10059 -1.13687e-13 -3.8 3.7 -0.736317 18.7577 -0.0183464 -5.68434e-14 -3 2.7 -0.0654685 10.2035 -0.0231443 0 -1.9 1.6 -1.76556e-31 3.18055e-15 3.18055e-15 0 -8.3 1.9 -4.31442 -16.72 -0.472473 0 -4.5 1.13687e-13 -29.7648 0.00266721 -0.0124256 0 -3.4 0 -21.9527 0.00974424 -0.00382747 -0.25 -2.2 0.4 -1.76556e-31 3.18055e-15 3.18055e-15 -1.13687e-13 -8.3 1 -15.3578 -2.70584 -0.168771 0 -4.65 0 -20.4011 -0.00756636 0.000380294 0 -3.3 -1.13687e-13 -16.1466 -0.00687769 -0.0124757 -0.5 -2.15 -0.8 -1.76556e-31 3.18055e-15 3.18055e-15 0 -7.75 -0.2 -71.981 9.43108 12.2368 0 -3.8 0 -0.000169892 0.103652 -0.019219 0 -3.4 -1.13687e-13 -9.27137e-06 0.0927058 0.00951811 -0.75 -1.75 -1.85 -1.76556e-31 3.18055e-15 3.18055e-15 0 -7.15 -1 -76.0079 6.41744 13.0314 0 -3 5.68434e-14 -0.0297555 0.0250115 -0.0891352 0 -2.35 5.68434e-14 4.15279e-05 0.0269942 -0.0884361 -5 17 1.13687e-13 -6.66519 -0.817681 -4.98773 -6.45 -1.42109e-14 0 -1.97303 0.724878 -0.526721 -6.45 4.26326e-14 -1.13687e-13 -124.728 -71.6705 -41.4716 2.84217e-14 -32.4 -2 140.318 -69.6937 151.526 -1.13687e-13 -25.65 2 -41.5418 -2.52468 48.564 0.5 -1.5 2.65 11.4083 -20.2397 2.77642 0 -3.8 3.7 0.361414 34.5127 -0.198417 1.13687e-13 -3 2.7 0.00462418 3.76594 -0.0100359 5.68434e-14 -1.9 1.6 1.59028e-15 3.18055e-15 -3.18055e-15 0 -8.3 1.9 16.7434 -16.4982 2.22551 0 -4.5 5.68434e-14 3.19815 0.0287998 0.0117822 0 -3.4 5.68434e-14 3.016 0.0271865 0.0113271 0.25 -2.2 0.4 1.59028e-15 3.18055e-15 -3.18055e-15 5.68434e-14 -8.3 1 11.7305 -18.8107 1.4567 0 -4.65 0 39.9669 0.0671532 -0.0151532 0 -3.3 0 28.1118 0.0326013 -0.0252198 0.5 -2.15 -0.8 1.59028e-15 3.18055e-15 -3.18055e-15 -1.13687e-13 -7.75 -0.2 24.8588 -17.8185 2.83074 1.13687e-13 -3.8 0 56.1016 -0.0110065 0.00846486 0 -3.4 -5.68434e-14 38.9309 -0.00918334 0.0106736 0.75 -1.75 -1.85 1.59028e-15 3.18055e-15 -3.18055e-15 0 -7.15 -1 40.1057 -15.5977 3.16025 0 -3 0 51.3044 0.0468304 -0.0564457 -1.13687e-13 -2.35 -5.68434e-14 35.5441 0.0067933 -0.0478612 8 0 0 -1.58089 -7.53512 37.039 0 -45 -1 -0.376576 13.1468 -6.09363 0 -41 -2 2.14004 -4.97008 -9.28575 0 -7.5 12.5 -4.4492e-10 -6.30329e-05 -2.79024e-09 1.13687e-13 -1.38778e-17 4 -3.55858 0.332439 1.68716 -8 2.84217e-14 0 -22.6135 3.53828 -14.4807 0 -45 -1 0.0255828 14.558 -0.457402 0 -41 -2 11.7963 -0.319897 -4.59354 0 -7.5 12.5 -1.15504e-07 1.55945e-07 -2.54647e-06 5.68434e-14 -1.42109e-14 4 -10.6677 0.511552 17.4401 
238.905 92.0822 937.738 1.74562 5.10091 66.5469 0 8 -1.13687e-13 -8.66336 1.77508 -4.57009 -1.13687e-13 8 -1.13687e-13 1.47411 -0.771632 -0.709804 1.13687e-13 8 -1.13687e-13 0.730011 -0.380927 -0.351172 1.13687e-13 8 0 0.736985 -0.383728 -0.352231 0 17 0 -6.30879 4.52167 9.56178 0 10.8 0 -5.3034 3.35909 22.0417 5 17 0 -10.4745 -7.37134 -2.81769 6.45 0 -1.13687e-13 -1.42594 -1.18239 0.230645 6.45 -2.84217e-14 0 35.7808 -32.5622 13.6151 0 -32.4 -2 -10.2614 -49.2896 40.0568 0 -25.65 2 10.4852 -10.3131 17.8391 -0.5 -1.5 2.65 -20.162 0.626683 -7.11402 0 -3.8 3.7 -0.67078 19.0557 -0.00439326 0 -3 2.7 -0.0522573 8.35618 -0.0541716 0 -1.9 1.6 -3.97569e-15 -1.59028e-15 6.36111e-15 0 -8.3 1.9 -4.26343 -16.6336 -0.461896 0 -4.5 0 -29.9838 0.00266721 -0.0124256 -5.68434e-14 -3.4 1.13687e-13 -22.0842 0.00974424 -0.00382747 -0.25 -2.2 0.4 -3.97569e-15 -1.59028e-15 6.36111e-15 0 -8.3 1 -15.6731 -2.52105 -0.146569 0 -4.65 0 -20.2141 -0.0073814 0.000868787 -2.84217e-14 -3.3 -1.13687e-13 -16.0253 -0.00570132 -0.0124757 -0.5 -2.15 -0.8 -3.97569e-15 -1.59028e-15 6.36111e-15 1.13687e-13 -7.75 -0.2 -72.4188 9.26216 12.2489 5.68434e-14 -3.8 0 -0.000169892 0.103652 -0.019219 -5.68434e-14 -3.4 0 -9.27137e-06 0.0927058 0.00951811 -0.75 -1.75 -1.85 -3.97569e-15 -1.59028e-15 6.36111e-15 -1.13687e-13 -7.15 -1 -76.1393 6.24291 12.9404 0 -3 -5.68434e-14 -0.0297555 0.0250115 -0.0891352 -5.68434e-14 -2.35 5.68434e-14 4.15279e-05 0.0269942 -0.0884361 -5 17 0 -6.70402 -0.841814 -5.02534 -6.45 1.42109e-14 0 -1.97059 0.722927 -0.527459 -6.45 0 1.13687e-13 -124.902 -71.4312 -41.5881 2.84217e-14 -32.4 -2 139.482 -70.0944 150.616 -5.68434e-14 -25.65 2 -41.5349 -3.63997 48.5874 0.5 -1.5 2.65 10.4236 -21.377 2.12169 0 -3.8 3.7 0.314923 35.4655 -0.158012 0 -3 2.7 0.00461964 3.74008 -0.0100356 0 -1.9 1.6 -1.59028e-15 3.18055e-15 7.95139e-16 0 -8.3 1.9 17.5923 -15.8937 2.25706 0 -4.5 -5.68434e-14 3.19467 0.0194957 0.0117822 1.13687e-13 -3.4 0 3.01158 0.0187502 0.0113271 0.25 -2.2 0.4 -1.59028e-15 3.18055e-15 7.95139e-16 5.68434e-14 -8.3 1 12.3908 -18.4759 1.54439 0 -4.65 0 41.8896 0.0141004 0.000480774 0 -3.3 0 29.2957 0.00788867 -0.00218236 0.5 -2.15 -0.8 -1.59028e-15 3.18055e-15 7.95139e-16 0 -7.75 -0.2 26.4317 -17.319 2.93668 -1.13687e-13 -3.8 0 56.0305 -0.00736471 0.00518137 -1.13687e-13 -3.4 0 38.8755 -0.00918334 0.0068482 0.75 -1.75 -1.85 -1.59028e-15 3.18055e-15 7.95139e-16 -1.13687e-13 -7.15 -1 40.967 -15.3465 3.1351 -1.13687e-13 -3 0 53.1332 0.0141294 -0.00732676 1.13687e-13 -2.35 0 36.8243 0.00727536 -0.00767663 8 0 0 -1.61665 -7.56758 36.9868 1.13687e-13 -45 -1 -0.376818 13.1705 -6.09422 1.13687e-13 -41 -2 2.19599 -4.99669 -9.16599 0 -7.5 12.5 -4.4492e-10 -6.30329e-05 -2.79024e-09 -1.13687e-13 -1.38778e-17 4 -3.59522 0.324014 1.68864 -8 0 0 -22.668 3.45443 -14.4303 1.13687e-13 -45 -1 0.0257987 14.6894 -0.454249 0 -41 -2 11.8249 -0.375977 -4.55817 0 -7.5 12.5 -1.15504e-07 1.55945e-07 -2.54647e-06 -5.68434e-14 1.42109e-14 4 -10.757 0.508231 17.424 
